<?xml version="1.0" standalone="no"?>
<!DOCTYPE svg PUBLIC "-//W3C//DTD SVG 20010904//EN"
 "http://www.w3.org/TR/2001/REC-SVG-20010904/DTD/svg10.dtd">
<svg version="1.0" xmlns="http://www.w3.org/2000/svg"
 width="476.000000pt" height="476.000000pt" viewBox="0 0 476.000000 476.000000"
 preserveAspectRatio="xMidYMid meet">
<metadata>
Created by potrace 1.11, written by Peter Selinger 2001-2013
</metadata>
<g transform="translate(0.000000,476.000000) scale(0.100000,-0.100000)"
fill="#000000" stroke="none">
<path d="M610 4290 l0 -400 1093 0 c1060 0 1096 -1 1151 -20 98 -34 174 -101
221 -198 64 -130 52 -314 -28 -424 -51 -72 -152 -140 -226 -152 -20 -3 -177
-6 -348 -7 -215 0 -313 -4 -313 -11 0 -6 58 -97 129 -202 70 -105 157 -234
192 -286 35 -52 66 -97 69 -100 3 -3 35 -51 72 -107 l68 -101 153 -4 c150 -3
154 -4 220 -36 217 -107 303 -379 190 -606 -31 -60 -99 -134 -152 -164 l-40
-23 -40 54 c-22 30 -86 124 -142 208 -57 85 -107 159 -112 164 -4 6 -63 93
-130 195 -68 102 -181 271 -252 375 -322 476 -445 659 -621 920 -104 155 -198
294 -210 309 l-21 29 -452 0 c-248 0 -454 -3 -457 -5 -7 -7 -6 -2047 1 -2058
7 -12 814 -14 831 -2 9 5 12 111 12 380 0 205 3 376 6 380 12 11 41 -29 252
-343 377 -563 407 -608 408 -624 1 -15 -67 -16 -762 -17 -420 -1 -766 -4 -769
-8 -9 -8 -8 -800 1 -814 9 -15 2413 -16 2486 -2 25 4 65 11 89 15 23 3 55 11
70 16 14 6 26 10 26 9 0 -2 22 5 95 30 200 69 412 219 549 390 20 25 38 47 41
50 30 27 132 220 168 315 71 191 98 468 66 679 -32 213 -130 434 -271 617
l-43 55 36 85 c19 46 39 93 44 104 21 49 55 182 65 259 1 12 6 44 10 71 13 81
8 306 -9 406 -23 131 -50 218 -108 336 -158 328 -469 560 -858 642 -91 19
-139 19 -1272 20 l-1178 1 0 -400z"/>
<path d="M622 218 l3 -153 1784 -3 c1245 -1 1787 1 1791 9 6 8 6 262 1 292 0
4 -807 7 -1791 7 l-1791 0 3 -152z"/>
</g>
</svg>
